<?xml version="1.0" encoding="utf-8"?>
<!-- Generator: Adobe Illustrator 24.3.0, SVG Export Plug-In . SVG Version: 6.00 Build 0)  -->
<svg version="1.1" id="Слой_1" xmlns="http://www.w3.org/2000/svg" xmlns:xlink="http://www.w3.org/1999/xlink" x="0px" y="0px"
	 viewBox="0 0 560 288" style="enable-background:new 0 0 560 288;" xml:space="preserve">
<style type="text/css">
	.st0{fill:none;stroke:#A5CCEE;stroke-width:2;stroke-linecap:round;stroke-linejoin:round;}
	.st1{fill:#A5CCEE;}
	.st2{fill:#44AFE4;stroke:#44AFE4;stroke-width:5;stroke-linecap:round;stroke-linejoin:round;stroke-miterlimit:10;}
	.st3{fill:none;stroke:#A5CCEE;stroke-width:2;stroke-linecap:round;stroke-linejoin:round;stroke-miterlimit:10;}
	.st4{fill:#44AFE4;stroke:#44AFE4;stroke-width:3;stroke-linecap:round;stroke-linejoin:round;stroke-miterlimit:10;}
</style>
<g>
	<g>
		<line class="st0" x1="240" y1="180.4" x2="250" y2="180.4"/>
		<g>
			<polygon class="st1" points="249.2,183 253.7,180.4 249.2,177.9 			"/>
		</g>
	</g>
</g>
<g>
	<path class="st2" d="M284.2,231.4h-16.5c-6.6,0-12-5.4-12-12v-78.3c0-6.6,5.4-12,12-12h16.5c6.6,0,12,5.4,12,12v78.3
		C296.2,226,290.8,231.4,284.2,231.4z"/>
	<path class="st2" d="M276.1,137.2h-0.3c-6.6,0-12-5.4-12-12V80.4c0-6.6,5.4-12,12-12h0.3c6.6,0,12,5.4,12,12v44.8
		C288.1,131.8,282.7,137.2,276.1,137.2z"/>
	<line class="st2" x1="256.7" y1="136.3" x2="277" y2="101.8"/>
	<line class="st2" x1="294.8" y1="135.9" x2="274.5" y2="101.5"/>
</g>
<line class="st3" x1="240" y1="201" x2="240" y2="181"/>
<line class="st3" x1="264" y1="213" x2="264" y2="201"/>
<line class="st3" x1="240" y1="201" x2="264" y2="201"/>
<line class="st3" x1="254" y1="213" x2="264" y2="213"/>
<g>
	<g>
		<line class="st0" x1="104" y1="213" x2="250.3" y2="213"/>
		<g>
			<polygon class="st1" points="249.5,215.6 254,213 249.5,210.4 			"/>
		</g>
	</g>
</g>
<g>
	<polygon class="st4" points="193.5,213.4 185.7,208.9 185.7,217.9 	"/>
	<polygon class="st4" points="193.8,213.4 201.5,208.9 201.5,217.9 	"/>
</g>
<line class="st3" x1="264" y1="180.4" x2="264" y2="168.4"/>
<line class="st3" x1="204" y1="168.4" x2="264" y2="168.4"/>
<line class="st3" x1="254" y1="180.4" x2="264" y2="180.4"/>
</svg>
