<?xml version="1.0" encoding="utf-8"?>
<!-- Generator: Adobe Illustrator 24.3.0, SVG Export Plug-In . SVG Version: 6.00 Build 0)  -->
<svg version="1.1" id="Слой_1" xmlns="http://www.w3.org/2000/svg" xmlns:xlink="http://www.w3.org/1999/xlink" x="0px" y="0px"
	 viewBox="0 0 455 318" style="enable-background:new 0 0 455 318;" xml:space="preserve">
<style type="text/css">
	.st0{fill:none;stroke:#92C979;stroke-width:1.5;stroke-linecap:round;stroke-linejoin:round;stroke-miterlimit:10;}
	.st1{fill:none;stroke:#4C683A;stroke-width:1.5;stroke-linecap:round;stroke-linejoin:round;stroke-miterlimit:10;}
	.st2{fill:none;stroke:#A5CCEE;stroke-width:1.5;stroke-linecap:round;stroke-linejoin:round;}
	.st3{fill:#A5CCEE;}
	.st4{fill:#44AFE4;stroke:#44AFE4;stroke-width:5;stroke-linecap:round;stroke-linejoin:round;stroke-miterlimit:10;}
	.st5{fill:none;stroke:#A5CCEE;stroke-width:1.5;stroke-linecap:round;stroke-linejoin:round;stroke-miterlimit:10;}
	.st6{fill:none;stroke:#6A9B4B;stroke-width:1.5;stroke-linecap:round;stroke-linejoin:round;stroke-miterlimit:10;}
	.st7{fill:none;stroke:#A4EF84;stroke-width:1.5;stroke-linecap:round;stroke-linejoin:round;stroke-miterlimit:10;}
	.st8{fill:#44AFE4;stroke:#44AFE4;stroke-width:3;stroke-linecap:round;stroke-linejoin:round;stroke-miterlimit:10;}
	.st9{fill:none;stroke:#6A9B4B;stroke-width:1.5;stroke-linecap:round;stroke-linejoin:round;}
	.st10{fill:#6A9B4B;}
	.st11{fill:none;stroke:#A4EF84;stroke-width:1.5;stroke-linecap:round;stroke-linejoin:round;}
	.st12{fill:#A4EF84;}
	.st13{fill:#6A9B4B;stroke:#6A9B4B;stroke-width:2;stroke-linecap:round;stroke-linejoin:round;stroke-miterlimit:10;}
	.st14{fill:none;stroke:#CBF7B5;stroke-width:1.5;stroke-linecap:round;stroke-linejoin:round;stroke-miterlimit:10;}
	.st15{fill:none;stroke:#CBF7B5;stroke-width:1.5;stroke-linecap:round;stroke-linejoin:round;}
	.st16{fill:#CBF7B5;}
	.st17{fill:none;stroke:#92C979;stroke-width:1.5;stroke-linecap:round;stroke-linejoin:round;}
	.st18{fill:#92C979;}
	.st19{fill:#CBF7B5;stroke:#CBF7B5;stroke-width:2;stroke-linecap:round;stroke-linejoin:round;stroke-miterlimit:10;}
	.st20{fill:none;stroke:#92C979;stroke-width:2;stroke-linecap:round;stroke-linejoin:round;stroke-miterlimit:10;}
	.st21{fill:#92C979;stroke:#92C979;stroke-width:2;stroke-linecap:round;stroke-linejoin:round;stroke-miterlimit:10;}
	.st22{fill:#4C683A;}
	.st23{fill:#A4EF84;stroke:#A4EF84;stroke-width:2;stroke-linecap:round;stroke-linejoin:round;stroke-miterlimit:10;}
	.st24{fill:#1A1A1A;}
	.st25{fill:#D3D0D0;}
</style>
<line class="st0" x1="316.2" y1="119" x2="316.2" y2="106"/>
<line class="st1" x1="204" y1="291" x2="429" y2="291"/>
<g>
	<g>
		<line class="st2" x1="136" y1="227.4" x2="146.2" y2="227.4"/>
		<g>
			<polygon class="st3" points="145.6,229.4 149,227.4 145.6,225.5 			"/>
		</g>
	</g>
</g>
<g>
	<path class="st4" d="M191,298h-28c-6.6,0-12-5.4-12-12v-95.5c0-6.6,5.4-12,12-12h28c6.6,0,12,5.4,12,12V286
		C203,292.6,197.6,298,191,298z"/>
	<path class="st4" d="M180.6,187.9h-7.2c-6.6,0-12-5.4-12-12v-56.5c0-6.6,5.4-12,12-12h7.2c6.6,0,12,5.4,12,12v56.5
		C192.6,182.5,187.2,187.9,180.6,187.9z"/>
	<line class="st4" x1="152.3" y1="186.7" x2="178.3" y2="146.5"/>
	<line class="st4" x1="201.2" y1="186.3" x2="175.2" y2="146.1"/>
</g>
<line class="st5" x1="136" y1="261" x2="136" y2="228"/>
<line class="st5" x1="160" y1="282" x2="160" y2="261"/>
<line class="st6" x1="177" y1="285" x2="177" y2="261"/>
<line class="st7" x1="186" y1="277" x2="186" y2="268"/>
<line class="st5" x1="136" y1="261" x2="160" y2="261"/>
<line class="st5" x1="149" y1="282" x2="160" y2="282"/>
<g>
	<g>
		<line class="st2" x1="63" y1="282" x2="146.2" y2="282"/>
		<g>
			<polygon class="st3" points="145.6,283.9 149,282 145.6,280.1 			"/>
		</g>
	</g>
</g>
<g>
	<polygon class="st8" points="113.5,282.4 105.7,277.9 105.7,286.9 	"/>
	<polygon class="st8" points="113.8,282.4 121.5,277.9 121.5,286.9 	"/>
</g>
<line class="st5" x1="136" y1="202.4" x2="160" y2="202.4"/>
<line class="st5" x1="149" y1="227.4" x2="160" y2="227.4"/>
<g>
	<g>
		<line class="st2" x1="136" y1="145" x2="156.2" y2="145"/>
		<g>
			<polygon class="st3" points="155.6,146.9 159,145 155.6,143.1 			"/>
		</g>
	</g>
</g>
<line class="st5" x1="160" y1="145" x2="169" y2="145"/>
<line class="st5" x1="160" y1="227" x2="160" y2="203"/>
<line class="st5" x1="136" y1="202" x2="136" y2="145"/>
<line class="st5" x1="169" y1="145" x2="169" y2="124"/>
<line class="st5" x1="82" y1="124" x2="169" y2="124"/>
<g>
	<polygon class="st8" points="136.2,172.9 131.7,180.7 140.7,180.7 	"/>
	<polygon class="st8" points="136.2,172.6 131.7,164.8 140.7,164.8 	"/>
</g>
<g>
	<polygon class="st8" points="106.8,124 99,119.5 99,128.5 	"/>
	<polygon class="st8" points="107,124 114.8,119.5 114.8,128.5 	"/>
</g>
<g>
	<g>
		<line class="st2" x1="82" y1="295.2" x2="82" y2="124"/>
		<g>
			<polygon class="st3" points="83.9,294.6 82,298 80.1,294.6 			"/>
		</g>
	</g>
</g>
<line class="st6" x1="177" y1="285" x2="205" y2="285"/>
<g>
	<g>
		<line class="st9" x1="401" y1="284.9" x2="208.3" y2="284.9"/>
		<g>
			<polygon class="st10" points="208.8,282.9 205.5,284.9 208.8,286.8 			"/>
		</g>
	</g>
</g>
<g>
	<g>
		<line class="st11" x1="369" y1="276.9" x2="207.8" y2="276.9"/>
		<g>
			<polygon class="st12" points="208.4,274.9 205,276.9 208.4,278.8 			"/>
		</g>
	</g>
</g>
<line class="st7" x1="186" y1="277" x2="205" y2="277"/>
<line class="st6" x1="177" y1="235" x2="224" y2="235"/>
<line class="st6" x1="224" y1="261" x2="224" y2="235"/>
<line class="st6" x1="177" y1="261" x2="224" y2="261"/>
<g>
	<polygon class="st13" points="223.9,249 219.4,256.8 228.4,256.8 	"/>
	<polygon class="st13" points="223.9,248.7 219.4,240.9 228.4,240.9 	"/>
</g>
<line class="st7" x1="186" y1="268" x2="342" y2="268"/>
<line class="st6" x1="177" y1="242" x2="177" y2="235"/>
<line class="st14" x1="177" y1="227" x2="177" y2="203"/>
<g>
	<g>
		<line class="st15" x1="316" y1="227" x2="207.8" y2="227"/>
		<g>
			<polygon class="st16" points="208.4,225 205,227 208.4,228.9 			"/>
		</g>
	</g>
</g>
<line class="st14" x1="177" y1="227.1" x2="204.4" y2="227.1"/>
<g>
	<g>
		<line class="st17" x1="289" y1="220" x2="208.8" y2="220"/>
		<g>
			<polygon class="st18" points="209.4,218 206,220 209.4,221.9 			"/>
		</g>
	</g>
</g>
<line class="st0" x1="186" y1="220.1" x2="205" y2="220.1"/>
<line class="st0" x1="185.6" y1="219.7" x2="185.6" y2="209"/>
<line class="st14" x1="177" y1="203" x2="224" y2="203"/>
<line class="st14" x1="224" y1="203" x2="224" y2="161"/>
<line class="st14" x1="177" y1="161" x2="224" y2="161"/>
<line class="st14" x1="177.1" y1="178.4" x2="177.1" y2="161"/>
<g>
	<polygon class="st19" points="224.3,183.1 219.8,190.9 228.8,190.9 	"/>
	<polygon class="st19" points="224.3,182.9 219.8,175.1 228.8,175.1 	"/>
</g>
<line class="st0" x1="186" y1="209" x2="253" y2="209"/>
<line class="st0" x1="253.1" y1="209" x2="253.1" y2="146"/>
<g>
	<g>
		<line class="st17" x1="253" y1="145.5" x2="197.8" y2="145.5"/>
		<g>
			<polygon class="st18" points="198.4,143.6 195,145.5 198.4,147.5 			"/>
		</g>
	</g>
</g>
<line class="st20" x1="182.8" y1="145.5" x2="193.8" y2="145.5"/>
<line class="st0" x1="182.6" y1="145.1" x2="182.6" y2="124"/>
<line class="st0" x1="183" y1="124" x2="232" y2="124"/>
<line class="st0" x1="232.3" y1="123.6" x2="232.3" y2="113"/>
<line class="st0" x1="177" y1="113.1" x2="232" y2="113.1"/>
<g>
	<polygon class="st21" points="212.6,113.8 220.3,118.3 220.3,109.3 	"/>
	<polygon class="st21" points="212.3,113.8 204.5,118.3 204.5,109.3 	"/>
</g>
<path class="st16" d="M330,131v36c0,6.6-5.4,12-12,12h-3c-6.6,0-12-5.4-12-12v-36c0-6.6,5.4-12,12-12h3C324.6,119,330,124.4,330,131
	z"/>
<g>
	<polygon class="st19" points="316.3,202.6 311.8,210.4 320.8,210.4 	"/>
	<polygon class="st19" points="316.3,202.3 311.8,194.5 320.8,194.5 	"/>
</g>
<line class="st14" x1="316" y1="227" x2="316" y2="172"/>
<line class="st0" x1="289.2" y1="220" x2="289.2" y2="106"/>
<line class="st0" x1="290" y1="106" x2="316" y2="106"/>
<line class="st7" x1="342" y1="268" x2="342" y2="142"/>
<g>
	<g>
		<line class="st11" x1="342" y1="141.5" x2="332.8" y2="141.5"/>
		<g>
			<polygon class="st12" points="333.4,139.5 330,141.5 333.4,143.4 			"/>
		</g>
	</g>
</g>
<path class="st10" d="M194,29v29.3c0,6.6-5.4,12-12,12h-3c-6.6,0-12-5.4-12-12V29c0-6.6,5.4-12,12-12h3C188.6,17,194,22.4,194,29z"
	/>
<path class="st12" d="M117,29v29.3c0,6.6-5.4,12-12,12h-3c-6.6,0-12-5.4-12-12V29c0-6.6,5.4-12,12-12h3C111.6,17,117,22.4,117,29z"
	/>
<path class="st22" d="M272,29v29c0,6.6-5.4,12-12,12h-3c-6.6,0-12-5.4-12-12V29c0-6.6,5.4-12,12-12h3C266.6,17,272,22.4,272,29z"/>
<line class="st7" x1="104" y1="95" x2="104" y2="70"/>
<line class="st7" x1="104" y1="95" x2="369" y2="95"/>
<line class="st7" x1="369" y1="277" x2="369" y2="95"/>
<line class="st6" x1="180" y1="85" x2="401" y2="85"/>
<line class="st6" x1="180" y1="85" x2="180" y2="70"/>
<g>
	<polygon class="st23" points="369.4,161.4 364.9,169.2 373.9,169.2 	"/>
	<polygon class="st23" points="369.4,161.1 364.9,153.3 373.9,153.3 	"/>
</g>
<line class="st6" x1="401" y1="285" x2="401" y2="85"/>
<g>
	<polygon class="st13" points="400.7,161.3 396.2,169.1 405.2,169.1 	"/>
	<polygon class="st13" points="400.7,161 396.2,153.2 405.2,153.2 	"/>
</g>
<line class="st1" x1="429" y1="291" x2="429" y2="76"/>
<line class="st1" x1="259" y1="76" x2="259" y2="64"/>
<line class="st1" x1="259" y1="76" x2="429" y2="76"/>
<g>
	<line class="st0" x1="174.5" y1="116" x2="178.5" y2="120"/>
	<line class="st0" x1="174.5" y1="120" x2="178.5" y2="116"/>
</g>
<g>
	<line class="st14" x1="175.1" y1="177.9" x2="179.1" y2="181.9"/>
	<line class="st14" x1="175.1" y1="181.9" x2="179.1" y2="177.9"/>
</g>
<g>
	<line class="st6" x1="175" y1="241.5" x2="179" y2="245.5"/>
	<line class="st6" x1="175" y1="245.5" x2="179" y2="241.5"/>
</g>
<line class="st0" x1="176.5" y1="116.8" x2="176.5" y2="113"/>
<g>
	<g>
		<path class="st24" d="M104.5,61.7h-0.8l-5.5-4.3v-1.3l5.5,4.3l-0.2,0.6v-6.7h1V61.7z M106.6,57h-2.1l-1,0h-1.8v-1.1h4.9V57z"/>
		<path class="st24" d="M106.6,52.1h-7.9l0.6-0.5V54h-1v-3.1h8.4V52.1z"/>
		<path class="st24" d="M106.6,48.4h-8.4v-3.5c0-0.9,0.2-1.7,0.5-2.4s0.8-1.2,1.5-1.6c0.6-0.4,1.4-0.6,2.2-0.6
			c0.8,0,1.6,0.2,2.2,0.6c0.6,0.4,1.1,0.9,1.5,1.6s0.5,1.5,0.5,2.4V48.4z M105.6,47.2v-2.3c0-0.7-0.1-1.3-0.4-1.8
			c-0.3-0.5-0.6-0.9-1.1-1.2c-0.5-0.3-1-0.4-1.7-0.4c-0.6,0-1.2,0.1-1.7,0.4c-0.5,0.3-0.8,0.7-1.1,1.2c-0.3,0.5-0.4,1.1-0.4,1.8v2.3
			H105.6z"/>
		<path class="st24" d="M106.6,37.7h-7.9l0.6-0.5v2.4h-1v-3.1h8.4V37.7z"/>
		<path class="st24" d="M106.7,32.2c0,0.6-0.1,1.2-0.3,1.7c-0.2,0.6-0.4,1-0.7,1.4l-0.9-0.6c0.3-0.3,0.5-0.6,0.6-1.1
			c0.2-0.4,0.3-0.9,0.3-1.4c0-0.6-0.1-1.1-0.4-1.5s-0.6-0.5-1.1-0.5c-0.4,0-0.8,0.2-1.1,0.5s-0.4,0.9-0.4,1.6v0.7h-0.8l-3.1-2.5
			l0.5-0.2v4.6h-1v-5.5H99l3.1,2.5l-0.4,0.6V32c0-1,0.2-1.8,0.7-2.3c0.5-0.5,1-0.8,1.7-0.8c0.5,0,0.9,0.1,1.3,0.3
			c0.4,0.2,0.7,0.6,0.9,1.1C106.6,30.8,106.7,31.4,106.7,32.2z"/>
	</g>
</g>
<g>
	<g>
		<path class="st24" d="M182.2,60.3h-0.8l-5.5-4.3v-1.3l5.5,4.3l-0.2,0.6v-6.7h1V60.3z M184.2,55.6h-2.1l-1,0h-1.8v-1.1h4.9V55.6z"
			/>
		<path class="st24" d="M184.2,50.7h-7.9l0.6-0.5v2.4h-1v-3.1h8.4V50.7z"/>
		<path class="st24" d="M184.2,47h-8.4v-3.5c0-0.9,0.2-1.7,0.5-2.4s0.8-1.2,1.5-1.6c0.6-0.4,1.4-0.6,2.2-0.6c0.8,0,1.6,0.2,2.2,0.6
			c0.6,0.4,1.1,0.9,1.5,1.6s0.5,1.5,0.5,2.4V47z M183.2,45.8v-2.3c0-0.7-0.1-1.3-0.4-1.8c-0.3-0.5-0.6-0.9-1.1-1.2
			c-0.5-0.3-1-0.4-1.7-0.4c-0.6,0-1.2,0.1-1.7,0.4c-0.5,0.3-0.8,0.7-1.1,1.2c-0.3,0.5-0.4,1.1-0.4,1.8v2.3H183.2z"/>
		<path class="st24" d="M184.2,36.4h-7.9l0.6-0.5v2.4h-1v-3.1h8.4V36.4z"/>
		<path class="st24" d="M184.2,33.5h-0.8l-3.3-3.4c-0.3-0.3-0.5-0.5-0.8-0.7s-0.4-0.2-0.6-0.3c-0.2-0.1-0.4-0.1-0.5-0.1
			c-0.4,0-0.8,0.2-1,0.5c-0.2,0.3-0.4,0.7-0.4,1.3c0,0.4,0.1,0.9,0.2,1.2s0.4,0.7,0.7,0.9l-0.7,0.8c-0.4-0.3-0.7-0.8-0.9-1.3
			c-0.2-0.5-0.3-1.1-0.3-1.8c0-0.6,0.1-1.1,0.3-1.5c0.2-0.4,0.5-0.8,0.8-1c0.4-0.2,0.8-0.4,1.2-0.4c0.3,0,0.5,0,0.8,0.1
			c0.3,0.1,0.5,0.2,0.8,0.4c0.3,0.2,0.6,0.5,1,0.9l2.9,3l-0.5,0.3v-5.1h1V33.5z"/>
	</g>
</g>
<g>
	<g>
		<path class="st24" d="M259.8,60.2h-0.8l-5.5-4.3v-1.3l5.5,4.3l-0.2,0.6v-6.7h1V60.2z M261.8,55.5h-2.1l-1,0h-1.8v-1.1h4.9V55.5z"
			/>
		<path class="st24" d="M261.8,50.6h-7.9l0.6-0.5v2.4h-1v-3.1h8.4V50.6z"/>
		<path class="st24" d="M261.8,46.9h-8.4v-3.5c0-0.9,0.2-1.7,0.5-2.4s0.8-1.2,1.5-1.6c0.6-0.4,1.4-0.6,2.2-0.6
			c0.8,0,1.6,0.2,2.2,0.6c0.6,0.4,1.1,0.9,1.5,1.6s0.5,1.5,0.5,2.4V46.9z M260.8,45.7v-2.3c0-0.7-0.1-1.3-0.4-1.8
			c-0.3-0.5-0.6-0.9-1.1-1.2c-0.5-0.3-1-0.4-1.7-0.4c-0.6,0-1.2,0.1-1.7,0.4c-0.5,0.3-0.8,0.7-1.1,1.2c-0.3,0.5-0.4,1.1-0.4,1.8v2.3
			H260.8z"/>
		<path class="st24" d="M261.8,36.3h-7.9l0.6-0.5v2.4h-1v-3.1h8.4V36.3z"/>
		<path class="st24" d="M261.8,31.9h-7.9l0.6-0.5v2.4h-1v-3.1h8.4V31.9z"/>
	</g>
</g>
<g>
	<g>
		<path class="st24" d="M318.3,166.1h-0.8l-5.5-4.3v-1.3l5.5,4.3l-0.2,0.6v-6.7h1V166.1z M320.4,161.4h-2.1l-1,0h-1.8v-1.1h4.9
			V161.4z"/>
		<path class="st24" d="M320.4,156.5h-7.9l0.6-0.5v2.4h-1v-3.1h8.4V156.5z"/>
		<path class="st24" d="M320.4,152.8H312v-3.5c0-0.9,0.2-1.7,0.5-2.4c0.4-0.7,0.8-1.2,1.5-1.6c0.6-0.4,1.4-0.6,2.2-0.6
			c0.8,0,1.6,0.2,2.2,0.6c0.6,0.4,1.1,0.9,1.5,1.6c0.4,0.7,0.5,1.5,0.5,2.4V152.8z M319.3,151.6v-2.3c0-0.7-0.1-1.3-0.4-1.8
			c-0.3-0.5-0.6-0.9-1.1-1.2c-0.5-0.3-1-0.4-1.7-0.4c-0.6,0-1.2,0.1-1.7,0.4c-0.5,0.3-0.8,0.7-1.1,1.2c-0.3,0.5-0.4,1.1-0.4,1.8v2.3
			H319.3z"/>
		<path class="st24" d="M320.4,142.1h-7.9l0.6-0.5v2.4h-1V141h8.4V142.1z"/>
		<path class="st24" d="M318.3,139.2h-0.8l-5.5-4.3v-1.3l5.5,4.3l-0.2,0.6v-6.7h1V139.2z M320.4,134.6h-2.1l-1,0h-1.8v-1.1h4.9
			V134.6z"/>
	</g>
</g>
<g>
	<g>
		<path class="st25" d="M6.1,283.7l-2.5-4.6h0.9l2,4L6.1,283.7z M4.4,284c0.3,0.1,0.5,0.1,0.8,0.1c0.2-0.1,0.4-0.2,0.6-0.5l0.3-0.4
			l0.1-0.1l2.1-3.9H9l-2.5,4.6c-0.2,0.4-0.4,0.6-0.7,0.8s-0.5,0.3-0.8,0.3c-0.3,0-0.6,0-0.9-0.2L4.4,284z"/>
		<path class="st25" d="M11.7,284.7c-0.4,0-0.8-0.1-1.2-0.3c-0.3-0.2-0.6-0.4-0.8-0.8s-0.3-0.7-0.3-1.1c0-0.4,0.1-0.8,0.3-1.1
			s0.5-0.6,0.8-0.8c0.3-0.2,0.7-0.3,1.2-0.3c0.4,0,0.7,0.1,1,0.2c0.3,0.2,0.5,0.4,0.7,0.7l-0.6,0.4c-0.1-0.2-0.3-0.4-0.5-0.5
			s-0.4-0.1-0.6-0.1c-0.3,0-0.5,0.1-0.7,0.2s-0.4,0.3-0.5,0.5c-0.1,0.2-0.2,0.5-0.2,0.8s0.1,0.6,0.2,0.8c0.1,0.2,0.3,0.4,0.5,0.5
			c0.2,0.1,0.5,0.2,0.7,0.2c0.2,0,0.4,0,0.6-0.1c0.2-0.1,0.4-0.3,0.5-0.5l0.6,0.4c-0.2,0.3-0.4,0.5-0.7,0.7
			C12.4,284.6,12.1,284.7,11.7,284.7z"/>
		<path class="st25" d="M15.2,284.7v-3.8l0.2,0.2h-1.7v-0.7h3.9v0.7h-1.7l0.2-0.2v3.8H15.2z"/>
		<path class="st25" d="M19.5,284.7c-0.3,0-0.6-0.1-0.8-0.2c-0.2-0.1-0.4-0.3-0.5-0.4s-0.2-0.4-0.2-0.6c0-0.2,0.1-0.4,0.2-0.6
			s0.3-0.3,0.5-0.4c0.2-0.1,0.6-0.2,1-0.2H21v0.6h-1.3c-0.4,0-0.6,0.1-0.8,0.2c-0.1,0.1-0.2,0.3-0.2,0.5c0,0.2,0.1,0.4,0.2,0.5
			c0.2,0.1,0.4,0.2,0.7,0.2c0.3,0,0.5-0.1,0.8-0.2s0.4-0.3,0.5-0.6l0.2,0.5c-0.1,0.2-0.3,0.4-0.5,0.6S19.9,284.7,19.5,284.7z
			 M20.9,284.7v-0.9l0-0.2v-1.5c0-0.3-0.1-0.6-0.3-0.8s-0.5-0.3-0.9-0.3c-0.3,0-0.5,0-0.7,0.1c-0.2,0.1-0.4,0.2-0.6,0.3l-0.3-0.6
			c0.2-0.2,0.5-0.3,0.8-0.4c0.3-0.1,0.6-0.1,1-0.1c0.6,0,1,0.1,1.3,0.4c0.3,0.3,0.5,0.7,0.5,1.3v2.6H20.9z"/>
		<path class="st25" d="M23,284.7v-4.2h0.8v1.8h2.4v-1.8H27v4.2h-0.8v-1.8h-2.4v1.8H23z"/>
		<path class="st25" d="M30.3,284.7c-0.4,0-0.8-0.1-1.1-0.3c-0.3-0.2-0.6-0.4-0.8-0.8s-0.3-0.7-0.3-1.1c0-0.4,0.1-0.8,0.3-1.1
			c0.2-0.3,0.5-0.6,0.8-0.8s0.7-0.3,1.1-0.3c0.4,0,0.8,0.1,1.1,0.3c0.3,0.2,0.6,0.4,0.8,0.8c0.2,0.3,0.3,0.7,0.3,1.1
			c0,0.4-0.1,0.8-0.3,1.1c-0.2,0.3-0.5,0.6-0.8,0.8C31.1,284.6,30.7,284.7,30.3,284.7z M30.3,284c0.3,0,0.5-0.1,0.7-0.2
			c0.2-0.1,0.4-0.3,0.5-0.5c0.1-0.2,0.2-0.5,0.2-0.8c0-0.3-0.1-0.6-0.2-0.8c-0.1-0.2-0.3-0.4-0.5-0.5s-0.5-0.2-0.7-0.2
			s-0.5,0.1-0.7,0.2s-0.4,0.3-0.5,0.5c-0.1,0.2-0.2,0.5-0.2,0.8c0,0.3,0.1,0.6,0.2,0.8c0.1,0.2,0.3,0.4,0.5,0.5
			C29.8,284,30,284,30.3,284z"/>
		<path class="st25" d="M33.6,284.7v-4.2h2c0.5,0,0.9,0.1,1.2,0.3c0.3,0.2,0.4,0.5,0.4,0.8s-0.1,0.6-0.4,0.8
			c-0.3,0.2-0.6,0.3-1.1,0.3l0.1-0.2c0.5,0,0.9,0.1,1.1,0.3s0.4,0.5,0.4,0.8c0,0.4-0.1,0.7-0.4,0.9c-0.3,0.2-0.7,0.3-1.3,0.3H33.6z
			 M34.4,282.3h1.2c0.3,0,0.5-0.1,0.7-0.2s0.2-0.3,0.2-0.5c0-0.2-0.1-0.4-0.2-0.5s-0.4-0.2-0.7-0.2h-1.2V282.3z M34.4,284.1h1.2
			c0.3,0,0.6,0,0.7-0.1c0.2-0.1,0.2-0.3,0.2-0.5c0-0.2-0.1-0.4-0.2-0.5c-0.1-0.1-0.4-0.2-0.7-0.2h-1.3V284.1z"/>
		<path class="st25" d="M38.5,284.7v-4.2h0.8v4.2H38.5z M39.1,282.9v-0.7h1.4v0.7H39.1z M40.7,282.6l-0.7-0.1l1.6-2.1h0.8
			L40.7,282.6z M41.6,284.7l-1.6-2.1l0.6-0.4l1.9,2.4H41.6z"/>
		<path class="st25" d="M44.5,284.7c-0.3,0-0.6-0.1-0.8-0.2c-0.2-0.1-0.4-0.3-0.5-0.4s-0.2-0.4-0.2-0.6c0-0.2,0.1-0.4,0.2-0.6
			s0.3-0.3,0.5-0.4c0.2-0.1,0.6-0.2,1-0.2H46v0.6h-1.3c-0.4,0-0.6,0.1-0.8,0.2c-0.1,0.1-0.2,0.3-0.2,0.5c0,0.2,0.1,0.4,0.2,0.5
			c0.2,0.1,0.4,0.2,0.7,0.2c0.3,0,0.5-0.1,0.8-0.2s0.4-0.3,0.5-0.6l0.2,0.5c-0.1,0.2-0.3,0.4-0.5,0.6S44.9,284.7,44.5,284.7z
			 M45.9,284.7v-0.9l0-0.2v-1.5c0-0.3-0.1-0.6-0.3-0.8s-0.5-0.3-0.9-0.3c-0.3,0-0.5,0-0.7,0.1c-0.2,0.1-0.4,0.2-0.6,0.3l-0.3-0.6
			c0.2-0.2,0.5-0.3,0.8-0.4c0.3-0.1,0.6-0.1,1-0.1c0.6,0,1,0.1,1.3,0.4c0.3,0.3,0.5,0.7,0.5,1.3v2.6H45.9z"/>
		<path class="st25" d="M49.7,284.7v-0.5l2.3-2.2c0.2-0.2,0.4-0.4,0.5-0.5s0.2-0.3,0.2-0.4c0-0.1,0.1-0.2,0.1-0.4
			c0-0.3-0.1-0.5-0.3-0.7s-0.5-0.2-0.9-0.2c-0.3,0-0.6,0-0.8,0.1c-0.2,0.1-0.4,0.3-0.6,0.5l-0.5-0.5c0.2-0.3,0.5-0.5,0.9-0.6
			c0.4-0.1,0.8-0.2,1.2-0.2c0.4,0,0.7,0.1,1,0.2c0.3,0.1,0.5,0.3,0.7,0.5c0.2,0.2,0.2,0.5,0.2,0.8c0,0.2,0,0.4-0.1,0.5
			c0,0.2-0.1,0.4-0.3,0.6s-0.3,0.4-0.6,0.7l-2,2l-0.2-0.3h3.4v0.7H49.7z"/>
		<path class="st25" d="M54.3,284.7v-0.5l2.3-2.2c0.2-0.2,0.4-0.4,0.5-0.5s0.2-0.3,0.2-0.4c0-0.1,0.1-0.2,0.1-0.4
			c0-0.3-0.1-0.5-0.3-0.7s-0.5-0.2-0.9-0.2c-0.3,0-0.6,0-0.8,0.1c-0.2,0.1-0.4,0.3-0.6,0.5l-0.5-0.5c0.2-0.3,0.5-0.5,0.9-0.6
			c0.4-0.1,0.8-0.2,1.2-0.2c0.4,0,0.7,0.1,1,0.2c0.3,0.1,0.5,0.3,0.7,0.5c0.2,0.2,0.2,0.5,0.2,0.8c0,0.2,0,0.4-0.1,0.5
			c0,0.2-0.1,0.4-0.3,0.6s-0.3,0.4-0.6,0.7l-2,2L55,284h3.4v0.7H54.3z"/>
	</g>
</g>
<g>
	<g>
		<path class="st25" d="M59.1,305l-2.5-4.6h0.9l2,4L59.1,305z M57.4,305.2c0.3,0.1,0.5,0.1,0.8,0.1c0.2-0.1,0.4-0.2,0.6-0.5l0.3-0.4
			l0.1-0.1l2.1-3.9H62l-2.5,4.6c-0.2,0.4-0.4,0.6-0.7,0.8s-0.5,0.3-0.8,0.3c-0.3,0-0.6,0-0.9-0.2L57.4,305.2z"/>
		<path class="st25" d="M64.6,306c-0.4,0-0.8-0.1-1.2-0.3c-0.3-0.2-0.6-0.4-0.8-0.8s-0.3-0.7-0.3-1.1c0-0.4,0.1-0.8,0.3-1.1
			s0.5-0.6,0.8-0.8c0.3-0.2,0.7-0.3,1.2-0.3c0.4,0,0.7,0.1,1,0.2c0.3,0.2,0.5,0.4,0.7,0.7l-0.6,0.4c-0.1-0.2-0.3-0.4-0.5-0.5
			s-0.4-0.1-0.6-0.1c-0.3,0-0.5,0.1-0.7,0.2s-0.4,0.3-0.5,0.5c-0.1,0.2-0.2,0.5-0.2,0.8s0.1,0.6,0.2,0.8c0.1,0.2,0.3,0.4,0.5,0.5
			c0.2,0.1,0.5,0.2,0.7,0.2c0.2,0,0.4,0,0.6-0.1c0.2-0.1,0.4-0.3,0.5-0.5l0.6,0.4c-0.2,0.3-0.4,0.5-0.7,0.7
			C65.4,305.9,65,306,64.6,306z"/>
		<path class="st25" d="M68.2,306v-3.8l0.2,0.2h-1.7v-0.7h3.9v0.7h-1.7l0.2-0.2v3.8H68.2z"/>
		<path class="st25" d="M72.5,306c-0.3,0-0.6-0.1-0.8-0.2c-0.2-0.1-0.4-0.3-0.5-0.4s-0.2-0.4-0.2-0.6c0-0.2,0.1-0.4,0.2-0.6
			s0.3-0.3,0.5-0.4c0.2-0.1,0.6-0.2,1-0.2H74v0.6h-1.3c-0.4,0-0.6,0.1-0.8,0.2c-0.1,0.1-0.2,0.3-0.2,0.5c0,0.2,0.1,0.4,0.2,0.5
			c0.2,0.1,0.4,0.2,0.7,0.2c0.3,0,0.5-0.1,0.8-0.2s0.4-0.3,0.5-0.6l0.2,0.5c-0.1,0.2-0.3,0.4-0.5,0.6S72.9,306,72.5,306z M73.9,306
			v-0.9l0-0.2v-1.5c0-0.3-0.1-0.6-0.3-0.8s-0.5-0.3-0.9-0.3c-0.3,0-0.5,0-0.7,0.1c-0.2,0.1-0.4,0.2-0.6,0.3l-0.3-0.6
			c0.2-0.2,0.5-0.3,0.8-0.4c0.3-0.1,0.6-0.1,1-0.1c0.6,0,1,0.1,1.3,0.4c0.3,0.3,0.5,0.7,0.5,1.3v2.6H73.9z"/>
		<path class="st25" d="M76,306v-4.2h0.8v1.8h2.4v-1.8H80v4.2h-0.8v-1.8h-2.4v1.8H76z"/>
		<path class="st25" d="M83.3,306c-0.4,0-0.8-0.1-1.1-0.3c-0.3-0.2-0.6-0.4-0.8-0.8s-0.3-0.7-0.3-1.1c0-0.4,0.1-0.8,0.3-1.1
			c0.2-0.3,0.5-0.6,0.8-0.8s0.7-0.3,1.1-0.3c0.4,0,0.8,0.1,1.1,0.3c0.3,0.2,0.6,0.4,0.8,0.8c0.2,0.3,0.3,0.7,0.3,1.1
			c0,0.4-0.1,0.8-0.3,1.1c-0.2,0.3-0.5,0.6-0.8,0.8C84.1,305.9,83.7,306,83.3,306z M83.3,305.3c0.3,0,0.5-0.1,0.7-0.2
			c0.2-0.1,0.4-0.3,0.5-0.5c0.1-0.2,0.2-0.5,0.2-0.8c0-0.3-0.1-0.6-0.2-0.8c-0.1-0.2-0.3-0.4-0.5-0.5s-0.5-0.2-0.7-0.2
			s-0.5,0.1-0.7,0.2s-0.4,0.3-0.5,0.5c-0.1,0.2-0.2,0.5-0.2,0.8c0,0.3,0.1,0.6,0.2,0.8c0.1,0.2,0.3,0.4,0.5,0.5
			C82.8,305.3,83,305.3,83.3,305.3z"/>
		<path class="st25" d="M86.6,306v-4.2h2c0.5,0,0.9,0.1,1.2,0.3c0.3,0.2,0.4,0.5,0.4,0.8s-0.1,0.6-0.4,0.8c-0.3,0.2-0.6,0.3-1.1,0.3
			l0.1-0.2c0.5,0,0.9,0.1,1.1,0.3s0.4,0.5,0.4,0.8c0,0.4-0.1,0.7-0.4,0.9c-0.3,0.2-0.7,0.3-1.3,0.3H86.6z M87.3,303.5h1.2
			c0.3,0,0.5-0.1,0.7-0.2s0.2-0.3,0.2-0.5c0-0.2-0.1-0.4-0.2-0.5s-0.4-0.2-0.7-0.2h-1.2V303.5z M87.3,305.4h1.2c0.3,0,0.6,0,0.7-0.1
			c0.2-0.1,0.2-0.3,0.2-0.5c0-0.2-0.1-0.4-0.2-0.5c-0.1-0.1-0.4-0.2-0.7-0.2h-1.3V305.4z"/>
		<path class="st25" d="M91.5,306v-4.2h0.8v4.2H91.5z M92,304.2v-0.7h1.4v0.7H92z M93.6,303.9l-0.7-0.1l1.6-2.1h0.8L93.6,303.9z
			 M94.6,306l-1.6-2.1l0.6-0.4l1.9,2.4H94.6z"/>
		<path class="st25" d="M97.5,306c-0.3,0-0.6-0.1-0.8-0.2c-0.2-0.1-0.4-0.3-0.5-0.4s-0.2-0.4-0.2-0.6c0-0.2,0.1-0.4,0.2-0.6
			s0.3-0.3,0.5-0.4c0.2-0.1,0.6-0.2,1-0.2H99v0.6h-1.3c-0.4,0-0.6,0.1-0.8,0.2c-0.1,0.1-0.2,0.3-0.2,0.5c0,0.2,0.1,0.4,0.2,0.5
			c0.2,0.1,0.4,0.2,0.7,0.2c0.3,0,0.5-0.1,0.8-0.2s0.4-0.3,0.5-0.6l0.2,0.5c-0.1,0.2-0.3,0.4-0.5,0.6S97.9,306,97.5,306z M98.9,306
			v-0.9l0-0.2v-1.5c0-0.3-0.1-0.6-0.3-0.8s-0.5-0.3-0.9-0.3c-0.3,0-0.5,0-0.7,0.1c-0.2,0.1-0.4,0.2-0.6,0.3l-0.3-0.6
			c0.2-0.2,0.5-0.3,0.8-0.4c0.3-0.1,0.6-0.1,1-0.1c0.6,0,1,0.1,1.3,0.4c0.3,0.3,0.5,0.7,0.5,1.3v2.6H98.9z"/>
		<path class="st25" d="M103.8,306l2.4-5.3l0.2,0.4H103l0.4-0.4v1.4h-0.8v-1.7h4.2v0.5l-2.3,5.1H103.8z"/>
		<path class="st25" d="M109.3,306c-0.4,0-0.8-0.1-1.1-0.2c-0.4-0.1-0.7-0.3-0.9-0.5l0.4-0.6c0.2,0.2,0.4,0.3,0.7,0.4
			c0.3,0.1,0.6,0.2,1,0.2c0.4,0,0.7-0.1,1-0.3s0.3-0.4,0.3-0.7c0-0.3-0.1-0.5-0.3-0.7s-0.6-0.3-1.1-0.3h-0.4v-0.6l1.7-2l0.1,0.3
			h-3.1v-0.7h3.7v0.5l-1.7,2l-0.4-0.2h0.3c0.7,0,1.2,0.2,1.5,0.5c0.3,0.3,0.5,0.7,0.5,1.2c0,0.3-0.1,0.6-0.2,0.9
			c-0.2,0.3-0.4,0.5-0.7,0.6S109.8,306,109.3,306z"/>
	</g>
</g>
</svg>
