<svg id="Слой_1" data-name="Слой 1" xmlns="http://www.w3.org/2000/svg" viewBox="0 0 425.78 289.06"><defs><style>.cls-1,.cls-12,.cls-16,.cls-2,.cls-3,.cls-6,.cls-7{fill:none;}.cls-1,.cls-16,.cls-17{stroke:#92c979;}.cls-1,.cls-11,.cls-12,.cls-15,.cls-16,.cls-17,.cls-19,.cls-2,.cls-3,.cls-5,.cls-6,.cls-7,.cls-8{stroke-linecap:round;stroke-linejoin:round;}.cls-1,.cls-12,.cls-2,.cls-3,.cls-6,.cls-7{stroke-width:1.5px;}.cls-2{stroke:#4c683a;}.cls-3{stroke:#a5ccee;}.cls-4{fill:#a5ccee;}.cls-5,.cls-8{fill:#44afe4;stroke:#44afe4;}.cls-5{stroke-width:5px;}.cls-11,.cls-6{stroke:#6a9b4b;}.cls-19,.cls-7{stroke:#a4ef84;}.cls-8{stroke-width:3px;}.cls-11,.cls-9{fill:#6a9b4b;}.cls-10,.cls-19{fill:#a4ef84;}.cls-11,.cls-15,.cls-16,.cls-17,.cls-19{stroke-width:2px;}.cls-12,.cls-15{stroke:#cbf7b5;}.cls-13,.cls-15{fill:#cbf7b5;}.cls-14,.cls-17{fill:#92c979;}.cls-18{fill:#4c683a;}.cls-20{fill:#1a1a1a;}.cls-21{fill:#d3d0d0;}</style></defs><line class="cls-1" x1="312.2" y1="102" x2="312.2" y2="89"/><line class="cls-2" x1="200.03" y1="274" x2="425.03" y2="274"/><line class="cls-3" x1="132.03" y1="210.45" x2="142.23" y2="210.45"/><polygon class="cls-4" points="141.66 212.39 145.03 210.45 141.66 208.5 141.66 212.39"/><rect class="cls-5" x="147.03" y="161.46" width="52" height="119.54" rx="12"/><rect class="cls-5" x="157.43" y="90.41" width="31.2" height="80.46" rx="12"/><line class="cls-5" x1="148.33" y1="169.74" x2="174.33" y2="129.5"/><line class="cls-5" x1="197.2" y1="169.33" x2="171.2" y2="129.09"/><line class="cls-3" x1="132.03" y1="244" x2="132.03" y2="211"/><line class="cls-3" x1="156.03" y1="265" x2="156.03" y2="244"/><line class="cls-6" x1="173.03" y1="268" x2="173.03" y2="244"/><line class="cls-7" x1="182.03" y1="260" x2="182.03" y2="251"/><line class="cls-3" x1="132.03" y1="244" x2="156.03" y2="244"/><line class="cls-3" x1="145.03" y1="265" x2="156.03" y2="265"/><line class="cls-3" x1="59.03" y1="265" x2="142.23" y2="265"/><polygon class="cls-4" points="141.66 266.94 145.03 265 141.66 263.06 141.66 266.94"/><polygon class="cls-8" points="109.5 265.45 101.7 260.95 101.7 269.95 109.5 265.45"/><polygon class="cls-8" points="109.78 265.45 117.58 260.95 117.58 269.95 109.78 265.45"/><line class="cls-3" x1="132.03" y1="185.45" x2="156.03" y2="185.45"/><line class="cls-3" x1="145.03" y1="210.45" x2="156.03" y2="210.45"/><line class="cls-3" x1="132.03" y1="128" x2="152.23" y2="128"/><polygon class="cls-4" points="151.66 129.94 155.03 128 151.66 126.06 151.66 129.94"/><line class="cls-3" x1="156.03" y1="128" x2="165.03" y2="128"/><line class="cls-3" x1="156.03" y1="210" x2="156.03" y2="186"/><line class="cls-3" x1="132.03" y1="185" x2="132.03" y2="128"/><line class="cls-3" x1="165.03" y1="128" x2="165.03" y2="107"/><line class="cls-3" x1="78.03" y1="107" x2="165.03" y2="107"/><polygon class="cls-8" points="132.21 155.86 127.72 163.65 136.71 163.65 132.21 155.86"/><polygon class="cls-8" points="132.21 155.57 127.72 147.78 136.71 147.78 132.21 155.57"/><polygon class="cls-8" points="102.79 106.97 95 102.47 95 111.47 102.79 106.97"/><polygon class="cls-8" points="103.08 106.97 110.87 102.47 110.87 111.47 103.08 106.97"/><line class="cls-3" x1="78.03" y1="278.2" x2="78.03" y2="107"/><polygon class="cls-4" points="79.98 277.63 78.03 281 76.09 277.63 79.98 277.63"/><line class="cls-6" x1="173.03" y1="268" x2="201.03" y2="268"/><line class="cls-6" x1="397.03" y1="267.87" x2="204.29" y2="267.87"/><polygon class="cls-9" points="204.86 265.92 201.49 267.87 204.86 269.81 204.86 265.92"/><line class="cls-7" x1="365.03" y1="259.87" x2="203.83" y2="259.87"/><polygon class="cls-10" points="204.4 257.92 201.03 259.87 204.4 261.81 204.4 257.92"/><line class="cls-7" x1="182.03" y1="260" x2="201.03" y2="260"/><line class="cls-6" x1="173.03" y1="218" x2="220.03" y2="218"/><line class="cls-6" x1="220.03" y1="244" x2="220.03" y2="218"/><line class="cls-6" x1="173.03" y1="244" x2="220.03" y2="244"/><polygon class="cls-11" points="219.96 231.96 215.46 239.76 224.46 239.76 219.96 231.96"/><polygon class="cls-11" points="219.96 231.68 215.46 223.88 224.46 223.88 219.96 231.68"/><line class="cls-7" x1="182.03" y1="251" x2="338.03" y2="251"/><line class="cls-6" x1="173.03" y1="225" x2="173.03" y2="218"/><line class="cls-12" x1="173.03" y1="210" x2="173.03" y2="186"/><line class="cls-12" x1="312.03" y1="209.95" x2="203.83" y2="209.95"/><polygon class="cls-13" points="204.4 208.01 201.03 209.95 204.4 211.9 204.4 208.01"/><line class="cls-12" x1="173.03" y1="210.08" x2="200.42" y2="210.08"/><line class="cls-1" x1="285.03" y1="202.96" x2="204.83" y2="202.96"/><polygon class="cls-14" points="205.4 201.02 202.03 202.96 205.4 204.91 205.4 201.02"/><line class="cls-1" x1="182.03" y1="203.09" x2="201.03" y2="203.09"/><line class="cls-1" x1="181.68" y1="202.72" x2="181.68" y2="192"/><line class="cls-12" x1="173.03" y1="186" x2="220.03" y2="186"/><line class="cls-12" x1="220.03" y1="186" x2="220.03" y2="144"/><line class="cls-12" x1="173.03" y1="144" x2="220.03" y2="144"/><line class="cls-12" x1="173.11" y1="161.4" x2="173.11" y2="144"/><polygon class="cls-15" points="220.36 166.14 215.86 173.93 224.85 173.93 220.36 166.14"/><polygon class="cls-15" points="220.36 165.85 215.86 158.06 224.85 158.06 220.36 165.85"/><line class="cls-1" x1="182.03" y1="192" x2="249.03" y2="192"/><line class="cls-1" x1="249.12" y1="192" x2="249.12" y2="129"/><line class="cls-1" x1="249.03" y1="128.53" x2="193.83" y2="128.53"/><polygon class="cls-14" points="194.4 126.59 191.03 128.53 194.4 130.48 194.4 126.59"/><line class="cls-16" x1="178.82" y1="128.5" x2="189.82" y2="128.5"/><line class="cls-1" x1="178.65" y1="128.12" x2="178.65" y2="107"/><line class="cls-1" x1="179.03" y1="107" x2="228.03" y2="107"/><line class="cls-1" x1="228.32" y1="106.6" x2="228.32" y2="96"/><line class="cls-1" x1="173.03" y1="96.14" x2="228.03" y2="96.14"/><polygon class="cls-17" points="208.58 96.82 216.38 101.32 216.38 92.32 208.58 96.82"/><polygon class="cls-17" points="208.29 96.82 200.5 101.32 200.5 92.32 208.29 96.82"/><rect class="cls-13" x="286.5" y="135.5" width="60" height="27" rx="12" transform="translate(163.53 448.5) rotate(-90)"/><polygon class="cls-15" points="312.35 185.61 307.86 193.4 316.85 193.4 312.35 185.61"/><polygon class="cls-15" points="312.35 185.32 307.86 177.53 316.85 177.53 312.35 185.32"/><line class="cls-12" x1="312.03" y1="210" x2="312.03" y2="155"/><line class="cls-1" x1="285.2" y1="203" x2="285.2" y2="89"/><line class="cls-1" x1="286.03" y1="89" x2="312.03" y2="89"/><line class="cls-7" x1="338.03" y1="251" x2="338.03" y2="125"/><line class="cls-7" x1="338.03" y1="124.45" x2="328.83" y2="124.45"/><polygon class="cls-10" points="329.4 122.51 326.03 124.45 329.4 126.4 329.4 122.51"/><rect class="cls-9" x="153.83" y="30.17" width="53.33" height="27" rx="12" transform="translate(132.87 207.17) rotate(-90)"/><rect class="cls-10" x="76.83" y="30.17" width="53.33" height="27" rx="12" transform="translate(55.87 130.17) rotate(-90)"/><rect class="cls-18" x="232" y="30" width="53" height="27" rx="12" transform="translate(211.03 285) rotate(-90)"/><line class="cls-7" x1="100.03" y1="78" x2="100.03" y2="53"/><line class="cls-7" x1="100.03" y1="78" x2="365.03" y2="78"/><line class="cls-7" x1="365.03" y1="260" x2="365.03" y2="78"/><line class="cls-6" x1="176.03" y1="68" x2="397.03" y2="68"/><line class="cls-6" x1="176.03" y1="68" x2="176.03" y2="53"/><polygon class="cls-19" points="365.41 144.36 360.91 152.15 369.91 152.15 365.41 144.36"/><polygon class="cls-19" points="365.41 144.07 360.91 136.28 369.91 136.28 365.41 144.07"/><line class="cls-6" x1="397.03" y1="268" x2="397.03" y2="68"/><polygon class="cls-11" points="396.73 144.29 392.23 152.08 401.23 152.08 396.73 144.29"/><polygon class="cls-11" points="396.73 144 392.23 136.21 401.23 136.21 396.73 144"/><line class="cls-2" x1="425.03" y1="274" x2="425.03" y2="59"/><line class="cls-2" x1="255.03" y1="59" x2="255.03" y2="47"/><line class="cls-2" x1="255.03" y1="59" x2="425.03" y2="59"/><line class="cls-1" x1="170.52" y1="99" x2="174.52" y2="103"/><line class="cls-1" x1="170.52" y1="103" x2="174.52" y2="99"/><line class="cls-12" x1="171.13" y1="160.91" x2="175.13" y2="164.91"/><line class="cls-12" x1="171.13" y1="164.91" x2="175.13" y2="160.91"/><line class="cls-6" x1="171.01" y1="224.47" x2="175.01" y2="228.47"/><line class="cls-6" x1="171.01" y1="228.47" x2="175.01" y2="224.47"/><line class="cls-1" x1="172.57" y1="99.83" x2="172.57" y2="96"/><path class="cls-20" d="M104.54,61.46h-.84l-5.5-4.3v-1.3l5.5,4.26-.19.62V54h1Zm2.06-4.67h-2.06l-1,0h-1.83V55.62h4.92Z" transform="translate(-3.97 -17)"/><path class="cls-20" d="M106.6,52.19H98.68l.57-.51v2.41h-1V51h8.4Z" transform="translate(-3.97 -17)"/><path class="cls-20" d="M106.6,48.48H98.2V44.94a5.17,5.17,0,0,1,.53-2.37A3.85,3.85,0,0,1,100.21,41a4.51,4.51,0,0,1,4.39,0,3.9,3.9,0,0,1,1.47,1.59,5,5,0,0,1,.53,2.37Zm-1-1.2V45a3.81,3.81,0,0,0-.4-1.81A2.81,2.81,0,0,0,104.05,42a3.45,3.45,0,0,0-3.3,0,2.87,2.87,0,0,0-1.11,1.18A3.93,3.93,0,0,0,99.25,45v2.26Z" transform="translate(-3.97 -17)"/><path class="cls-20" d="M106.6,38H98.68l.57-.52v2.41h-1V36.77h8.4Z" transform="translate(-3.97 -17)"/><path class="cls-20" d="M106.7,32.37a5.3,5.3,0,0,1-.28,1.72,3.75,3.75,0,0,1-.74,1.36l-1-.55a3.29,3.29,0,0,0,.65-1.09,4,4,0,0,0,.25-1.44,2.33,2.33,0,0,0-.4-1.46,1.3,1.3,0,0,0-1.09-.52,1.28,1.28,0,0,0-1.06.5,2.46,2.46,0,0,0-.4,1.57v.68h-.84l-3.07-2.5.48-.17v4.6h-1V29.52H99L102.08,32l-.37.62v-.39a3.32,3.32,0,0,1,.68-2.29,2.24,2.24,0,0,1,1.74-.76,2.46,2.46,0,0,1,1.3.35,2.4,2.4,0,0,1,.93,1.05A4.15,4.15,0,0,1,106.7,32.37Z" transform="translate(-3.97 -17)"/><path class="cls-20" d="M182.17,60.07h-.84l-5.5-4.3V54.48l5.5,4.26-.19.61V52.64h1Zm2.06-4.67h-2.06l-1,0h-1.83V54.24h4.92Z" transform="translate(-3.97 -17)"/><path class="cls-20" d="M184.23,50.81h-7.92l.57-.52V52.7h-1V49.62h8.4Z" transform="translate(-3.97 -17)"/><path class="cls-20" d="M184.23,47.1h-8.4V43.56a5.11,5.11,0,0,1,.53-2.37,3.82,3.82,0,0,1,1.48-1.6,4.51,4.51,0,0,1,4.39,0,3.86,3.86,0,0,1,1.47,1.6,5,5,0,0,1,.53,2.37Zm-1-1.2V43.63a3.81,3.81,0,0,0-.4-1.81,2.87,2.87,0,0,0-1.11-1.18,3.45,3.45,0,0,0-3.3,0,2.94,2.94,0,0,0-1.11,1.18,3.93,3.93,0,0,0-.39,1.81V45.9Z" transform="translate(-3.97 -17)"/><path class="cls-20" d="M184.23,36.57h-7.92l.57-.51v2.41h-1V35.39h8.4Z" transform="translate(-3.97 -17)"/><path class="cls-20" d="M184.23,33.68h-.81l-3.3-3.42a5.27,5.27,0,0,0-.77-.68,2.63,2.63,0,0,0-.61-.3,2.11,2.11,0,0,0-.54-.07,1.23,1.23,0,0,0-1,.45A2.07,2.07,0,0,0,176.8,31a3.16,3.16,0,0,0,.23,1.22,2.23,2.23,0,0,0,.69.93L177,34a3,3,0,0,1-.94-1.29,4.7,4.7,0,0,1-.33-1.78,3.77,3.77,0,0,1,.28-1.53,2.31,2.31,0,0,1,.81-1,2.16,2.16,0,0,1,1.25-.35,3.08,3.08,0,0,1,.8.1,3.23,3.23,0,0,1,.84.41,6.47,6.47,0,0,1,1,.87l2.94,3-.47.29V27.65h1Z" transform="translate(-3.97 -17)"/><path class="cls-20" d="M259.78,60h-.84l-5.49-4.3V54.4l5.49,4.26-.19.62V52.57h1Zm2.07-4.67h-2.07l-1,0h-1.82V54.16h4.92Z" transform="translate(-3.97 -17)"/><path class="cls-20" d="M261.85,50.73h-7.92l.56-.51v2.41h-1V49.54h8.4Z" transform="translate(-3.97 -17)"/><path class="cls-20" d="M261.85,47h-8.4V43.48a5.17,5.17,0,0,1,.52-2.37,4,4,0,0,1,1.48-1.59,4.51,4.51,0,0,1,4.39,0,3.92,3.92,0,0,1,1.48,1.59,5.17,5.17,0,0,1,.53,2.37Zm-1.05-1.2V43.56a3.93,3.93,0,0,0-.39-1.81,2.94,2.94,0,0,0-1.11-1.18,3.21,3.21,0,0,0-1.65-.42,3.17,3.17,0,0,0-1.66.42,2.85,2.85,0,0,0-1.1,1.18,3.81,3.81,0,0,0-.4,1.81v2.26Z" transform="translate(-3.97 -17)"/><path class="cls-20" d="M261.85,36.5h-7.92l.56-.52V38.4h-1V35.31h8.4Z" transform="translate(-3.97 -17)"/><path class="cls-20" d="M261.85,32.06h-7.92l.56-.52V34h-1V30.87h8.4Z" transform="translate(-3.97 -17)"/><path class="cls-20" d="M318.33,165.85h-.84l-5.5-4.3v-1.29l5.5,4.26-.19.61v-6.71h1Zm2.06-4.67h-2.06l-1,0h-1.83V160h4.92Z" transform="translate(-3.97 -17)"/><path class="cls-20" d="M320.39,156.59h-7.92l.57-.52v2.41H312V155.4h8.4Z" transform="translate(-3.97 -17)"/><path class="cls-20" d="M320.39,152.88H312v-3.54a5.11,5.11,0,0,1,.53-2.37,3.88,3.88,0,0,1,1.48-1.6,4.51,4.51,0,0,1,4.39,0,4,4,0,0,1,1.48,1.6,5.11,5.11,0,0,1,.52,2.37Zm-1-1.2v-2.27a3.81,3.81,0,0,0-.4-1.81,2.87,2.87,0,0,0-1.11-1.18,3.45,3.45,0,0,0-3.3,0,2.94,2.94,0,0,0-1.11,1.18,3.93,3.93,0,0,0-.39,1.81v2.27Z" transform="translate(-3.97 -17)"/><path class="cls-20" d="M320.39,142.35h-7.92l.57-.51v2.41H312v-3.08h8.4Z" transform="translate(-3.97 -17)"/><path class="cls-20" d="M318.33,139.45h-.84l-5.5-4.3v-1.29l5.5,4.26-.19.61V132h1Zm2.06-4.67h-2.06l-1,0h-1.83v-1.13h4.92Z" transform="translate(-3.97 -17)"/><path class="cls-21" d="M6.42,283.7,4,279.07h.85l2,4ZM4.7,284a1.36,1.36,0,0,0,.76.07,1.06,1.06,0,0,0,.64-.53l.27-.43.08-.09,2.05-3.92h.8l-2.49,4.61a2.39,2.39,0,0,1-.65.79,1.55,1.55,0,0,1-.8.3,1.92,1.92,0,0,1-.87-.16Z" transform="translate(-3.97 -17)"/><path class="cls-21" d="M11.52,284.72a2.46,2.46,0,0,1-1.16-.28,2.09,2.09,0,0,1-.79-.77,2.2,2.2,0,0,1-.29-1.12,2.17,2.17,0,0,1,.29-1.12,2,2,0,0,1,.79-.76,2.34,2.34,0,0,1,1.16-.28,2.29,2.29,0,0,1,1,.23,1.67,1.67,0,0,1,.7.67l-.59.38a1.22,1.22,0,0,0-.5-.46,1.44,1.44,0,0,0-.65-.15,1.41,1.41,0,0,0-.74.19,1.34,1.34,0,0,0-.52.51,1.74,1.74,0,0,0,0,1.58,1.3,1.3,0,0,0,.52.52,1.51,1.51,0,0,0,.74.19,1.44,1.44,0,0,0,.65-.15,1.22,1.22,0,0,0,.5-.46l.59.37a1.74,1.74,0,0,1-.7.67A2.17,2.17,0,0,1,11.52,284.72Z" transform="translate(-3.97 -17)"/><path class="cls-21" d="M15,284.67V280.9l.2.2H13.47v-.67h3.87v.67H15.61l.18-.2v3.77Z" transform="translate(-3.97 -17)"/><path class="cls-21" d="M19.34,284.72a2,2,0,0,1-.83-.16,1.3,1.3,0,0,1-.55-.45,1.1,1.1,0,0,1-.19-.64,1.17,1.17,0,0,1,.16-.62,1.11,1.11,0,0,1,.54-.45,2.5,2.5,0,0,1,1-.17h1.35v.55H19.5a1.18,1.18,0,0,0-.77.19.61.61,0,0,0-.2.47.59.59,0,0,0,.25.5,1.12,1.12,0,0,0,.68.19,1.46,1.46,0,0,0,.76-.2,1,1,0,0,0,.47-.56l.15.53a1.2,1.2,0,0,1-.54.6A2,2,0,0,1,19.34,284.72Zm1.39-.05v-.9l0-.16v-1.53a1,1,0,0,0-.29-.76,1.19,1.19,0,0,0-.85-.27,2.29,2.29,0,0,0-.73.13,1.78,1.78,0,0,0-.61.33l-.32-.58a2.35,2.35,0,0,1,.79-.4,3.32,3.32,0,0,1,1-.14,1.94,1.94,0,0,1,1.34.42,1.66,1.66,0,0,1,.48,1.3v2.56Z" transform="translate(-3.97 -17)"/><path class="cls-21" d="M22.84,284.67v-4.24h.77v1.8H26v-1.8h.77v4.24H26v-1.78H23.61v1.78Z" transform="translate(-3.97 -17)"/><path class="cls-21" d="M30.1,284.72a2.36,2.36,0,0,1-1.13-.28,2.24,2.24,0,0,1-.79-.77,2.15,2.15,0,0,1,.79-3,2.23,2.23,0,0,1,1.13-.28,2.27,2.27,0,0,1,1.14.28,2,2,0,0,1,.78.76,2.17,2.17,0,0,1,.28,1.12,2.19,2.19,0,0,1-.28,1.12,2.06,2.06,0,0,1-.78.77A2.38,2.38,0,0,1,30.1,284.72Zm0-.67a1.51,1.51,0,0,0,.74-.19,1.32,1.32,0,0,0,.5-.52,1.57,1.57,0,0,0,.19-.79,1.54,1.54,0,0,0-.19-.79,1.29,1.29,0,0,0-.5-.51,1.41,1.41,0,0,0-.74-.19,1.44,1.44,0,0,0-1.24.7,1.65,1.65,0,0,0-.19.79,1.68,1.68,0,0,0,.19.79,1.37,1.37,0,0,0,.52.52A1.43,1.43,0,0,0,30.1,284.05Z" transform="translate(-3.97 -17)"/><path class="cls-21" d="M33.42,284.67v-4.24h2a2.12,2.12,0,0,1,1.18.28,1,1,0,0,1,0,1.61,1.83,1.83,0,0,1-1.07.29l.12-.21a1.84,1.84,0,0,1,1.13.28,1,1,0,0,1,.37.82,1,1,0,0,1-.41.86,2.09,2.09,0,0,1-1.26.31Zm.75-2.42h1.15a1.14,1.14,0,0,0,.67-.16.57.57,0,0,0,0-.92,1.23,1.23,0,0,0-.67-.15H34.17Zm0,1.83H35.4a1.38,1.38,0,0,0,.72-.15.52.52,0,0,0,.24-.48.56.56,0,0,0-.22-.49,1.26,1.26,0,0,0-.69-.15H34.17Z" transform="translate(-3.97 -17)"/><path class="cls-21" d="M38.33,284.67v-4.24h.77v4.24Zm.53-1.79v-.66h1.4v.66Zm1.6-.24-.72-.1,1.63-2.11h.82Zm.94,2-1.64-2.06.63-.39,1.91,2.45Z" transform="translate(-3.97 -17)"/><path class="cls-21" d="M44.24,284.72a2,2,0,0,1-.83-.16,1.37,1.37,0,0,1-.55-.45,1.19,1.19,0,0,1,0-1.26,1.09,1.09,0,0,1,.53-.45,2.55,2.55,0,0,1,1-.17h1.34v.55H44.41a1.21,1.21,0,0,0-.78.19.65.65,0,0,0-.2.47.62.62,0,0,0,.25.5,1.18,1.18,0,0,0,.69.19,1.4,1.4,0,0,0,.75-.2,1,1,0,0,0,.47-.56l.15.53a1.23,1.23,0,0,1-.53.6A2,2,0,0,1,44.24,284.72Zm1.39-.05v-.9l0-.16v-1.53a1,1,0,0,0-.28-.76,1.2,1.2,0,0,0-.85-.27,2.35,2.35,0,0,0-.74.13,1.88,1.88,0,0,0-.61.33l-.32-.58a2.35,2.35,0,0,1,.79-.4,3.43,3.43,0,0,1,1-.14,2,2,0,0,1,1.35.42,1.69,1.69,0,0,1,.47,1.3v2.56Z" transform="translate(-3.97 -17)"/><path class="cls-21" d="M49.45,284.67v-.54l2.28-2.2a4.31,4.31,0,0,0,.45-.51,1.28,1.28,0,0,0,.2-.41,1.2,1.2,0,0,0,0-.36.83.83,0,0,0-.3-.68,1.35,1.35,0,0,0-.89-.25,2.09,2.09,0,0,0-.81.15,1.46,1.46,0,0,0-.62.46l-.55-.48a2,2,0,0,1,.86-.62,3.07,3.07,0,0,1,1.19-.22,2.66,2.66,0,0,1,1,.18,1.58,1.58,0,0,1,.67.54,1.55,1.55,0,0,1,.23.84,1.88,1.88,0,0,1-.07.53,2,2,0,0,1-.27.56,5.15,5.15,0,0,1-.58.67l-2,2-.19-.32h3.38v.7Z" transform="translate(-3.97 -17)"/><path class="cls-21" d="M54,284.67v-.54l2.28-2.2a4.31,4.31,0,0,0,.45-.51A1.28,1.28,0,0,0,57,281a1.2,1.2,0,0,0,.05-.36.83.83,0,0,0-.3-.68,1.35,1.35,0,0,0-.89-.25,2.09,2.09,0,0,0-.81.15,1.53,1.53,0,0,0-.62.46l-.54-.48a2,2,0,0,1,.86-.62A3,3,0,0,1,55.9,279a2.66,2.66,0,0,1,1,.18,1.58,1.58,0,0,1,.67.54,1.47,1.47,0,0,1,.23.84,1.88,1.88,0,0,1-.07.53,2,2,0,0,1-.27.56,4.48,4.48,0,0,1-.58.67l-2,2-.19-.32h3.38v.7Z" transform="translate(-3.97 -17)"/><path class="cls-21" d="M59.41,305,57,300.35h.85l2,4Zm-1.72.26a1.37,1.37,0,0,0,.76.08,1.08,1.08,0,0,0,.64-.54l.27-.43.08-.09,2.05-3.92h.8L59.8,305a2.44,2.44,0,0,1-.65.8,1.53,1.53,0,0,1-.8.29,1.79,1.79,0,0,1-.87-.16Z" transform="translate(-3.97 -17)"/><path class="cls-21" d="M64.51,306a2.34,2.34,0,0,1-1.16-.28,2.09,2.09,0,0,1-.79-.77,2.17,2.17,0,0,1-.29-1.12,2.2,2.2,0,0,1,.29-1.12,2.06,2.06,0,0,1,.79-.76,2.34,2.34,0,0,1,1.16-.28,2.29,2.29,0,0,1,1,.23,1.64,1.64,0,0,1,.7.68l-.59.37a1.29,1.29,0,0,0-.5-.46,1.44,1.44,0,0,0-.65-.15,1.51,1.51,0,0,0-.74.19,1.34,1.34,0,0,0-.52.51,1.57,1.57,0,0,0-.19.79,1.52,1.52,0,0,0,.19.79,1.39,1.39,0,0,0,.52.53,1.5,1.5,0,0,0,.74.18,1.44,1.44,0,0,0,.65-.15,1.22,1.22,0,0,0,.5-.46l.59.37a1.67,1.67,0,0,1-.7.67A2.17,2.17,0,0,1,64.51,306Z" transform="translate(-3.97 -17)"/><path class="cls-21" d="M68,306v-3.76l.2.19H66.46v-.67h3.87v.67H68.6l.18-.19V306Z" transform="translate(-3.97 -17)"/><path class="cls-21" d="M72.33,306a2,2,0,0,1-.83-.16,1.28,1.28,0,0,1-.55-.44,1.13,1.13,0,0,1-.19-.65,1.19,1.19,0,0,1,.16-.62,1.11,1.11,0,0,1,.54-.45,2.5,2.5,0,0,1,1-.17h1.35v.56H72.49a1.12,1.12,0,0,0-.77.19.63.63,0,0,0,0,1,1.06,1.06,0,0,0,.68.19,1.56,1.56,0,0,0,.76-.19,1.13,1.13,0,0,0,.47-.56l.15.53a1.18,1.18,0,0,1-.54.59A1.84,1.84,0,0,1,72.33,306Zm1.39-.05v-.89l0-.17v-1.53a1,1,0,0,0-.29-.75,1.19,1.19,0,0,0-.85-.27,2.28,2.28,0,0,0-.73.12,1.78,1.78,0,0,0-.61.33l-.32-.57a2.37,2.37,0,0,1,.79-.41,3.32,3.32,0,0,1,1-.14,1.89,1.89,0,0,1,1.34.43,1.62,1.62,0,0,1,.48,1.29V306Z" transform="translate(-3.97 -17)"/><path class="cls-21" d="M75.83,306v-4.24h.77v1.8H79v-1.8h.77V306H79v-1.77H76.6V306Z" transform="translate(-3.97 -17)"/><path class="cls-21" d="M83.09,306a2.23,2.23,0,0,1-1.13-.28,2.16,2.16,0,0,1-.79-.77,2.19,2.19,0,0,1-.28-1.12,2.13,2.13,0,0,1,.28-1.11A2.16,2.16,0,0,1,82,302a2.34,2.34,0,0,1,1.13-.28,2.29,2.29,0,0,1,1.14.28,2,2,0,0,1,.78.76,2.19,2.19,0,0,1,.28,1.12A2.17,2.17,0,0,1,85,305a2.06,2.06,0,0,1-.78.77A2.29,2.29,0,0,1,83.09,306Zm0-.67a1.5,1.5,0,0,0,.74-.18,1.34,1.34,0,0,0,.5-.53,1.74,1.74,0,0,0,0-1.58,1.29,1.29,0,0,0-.5-.51,1.51,1.51,0,0,0-.74-.19,1.43,1.43,0,0,0-.72.19,1.34,1.34,0,0,0-.52.51,1.74,1.74,0,0,0,0,1.58,1.39,1.39,0,0,0,.52.53A1.43,1.43,0,0,0,83.09,305.33Z" transform="translate(-3.97 -17)"/><path class="cls-21" d="M86.41,306v-4.24h2a2.06,2.06,0,0,1,1.17.29.89.89,0,0,1,.43.8.93.93,0,0,1-.4.81,1.91,1.91,0,0,1-1.07.28l.12-.21a1.84,1.84,0,0,1,1.13.28,1,1,0,0,1,.37.83,1,1,0,0,1-.41.86,2.17,2.17,0,0,1-1.26.3Zm.75-2.41h1.15a1.14,1.14,0,0,0,.67-.17.54.54,0,0,0,.23-.46.51.51,0,0,0-.23-.45,1.23,1.23,0,0,0-.67-.16H87.16Zm0,1.82h1.23a1.38,1.38,0,0,0,.72-.15.51.51,0,0,0,.24-.47.54.54,0,0,0-.22-.49,1.17,1.17,0,0,0-.69-.16H87.16Z" transform="translate(-3.97 -17)"/><path class="cls-21" d="M91.32,306v-4.24h.77V306Zm.53-1.79v-.66h1.4v.66Zm1.6-.24-.72-.09,1.63-2.12h.82Zm.94,2-1.64-2.06.63-.39L95.29,306Z" transform="translate(-3.97 -17)"/><path class="cls-21" d="M97.23,306a2,2,0,0,1-.83-.16,1.28,1.28,0,0,1-.55-.44,1.21,1.21,0,0,1,0-1.27,1.09,1.09,0,0,1,.53-.45,2.52,2.52,0,0,1,1-.17h1.34v.56H97.4a1.13,1.13,0,0,0-.78.19.61.61,0,0,0-.2.46.58.58,0,0,0,.25.5,1.07,1.07,0,0,0,.69.19,1.49,1.49,0,0,0,.75-.19,1.08,1.08,0,0,0,.47-.56l.15.53a1.21,1.21,0,0,1-.53.59A1.91,1.91,0,0,1,97.23,306Zm1.39-.05v-.89l0-.17v-1.53a1,1,0,0,0-.28-.75,1.2,1.2,0,0,0-.85-.27,2.34,2.34,0,0,0-.74.12,1.88,1.88,0,0,0-.61.33l-.32-.57a2.37,2.37,0,0,1,.79-.41,3.43,3.43,0,0,1,1-.14,1.92,1.92,0,0,1,1.35.43,1.66,1.66,0,0,1,.47,1.29V306Z" transform="translate(-3.97 -17)"/><path class="cls-21" d="M103.49,306l2.38-5.26.21.36h-3.33l.4-.39v1.39h-.77v-1.7h4.23v.55L104.34,306Z" transform="translate(-3.97 -17)"/><path class="cls-21" d="M109,306a3.43,3.43,0,0,1-1.15-.19,2.71,2.71,0,0,1-.91-.49l.37-.63a2.24,2.24,0,0,0,.73.43,2.76,2.76,0,0,0,1,.16,1.55,1.55,0,0,0,1-.26.88.88,0,0,0,.35-.73.84.84,0,0,0-.33-.7,1.7,1.7,0,0,0-1.06-.27h-.44v-.56l1.66-2,.11.32h-3.06v-.7h3.69v.55l-1.65,2-.42-.25h.27a2.19,2.19,0,0,1,1.52.46,1.47,1.47,0,0,1,.51,1.15,1.71,1.71,0,0,1-.23.87,1.64,1.64,0,0,1-.7.62A2.77,2.77,0,0,1,109,306Z" transform="translate(-3.97 -17)"/></svg>