<?xml version="1.0" encoding="utf-8"?>
<!-- Generator: Adobe Illustrator 24.3.0, SVG Export Plug-In . SVG Version: 6.00 Build 0)  -->
<svg version="1.1" id="рамка" xmlns="http://www.w3.org/2000/svg" xmlns:xlink="http://www.w3.org/1999/xlink" x="0px" y="0px"
	 viewBox="0 0 595.3 841.9" style="enable-background:new 0 0 595.3 841.9;" xml:space="preserve">
<style type="text/css">
	.st0{fill:#FFFFFF;stroke:#000000;stroke-miterlimit:10;}
	.st1{fill:none;}
	.st2{font-family:'MullerBold';}
	.st3{font-size:10.895px;}
	.st4{fill:none;stroke:#000000;stroke-miterlimit:10;}
	.st5{font-family:'MullerRegular';}
	.st6{font-size:13px;}
	.st7{fill:none;stroke:#009FE3;stroke-width:2;stroke-linecap:round;stroke-miterlimit:10;}
	.st8{fill:#009FE3;}
	.st9{fill:none;stroke:#008D36;stroke-width:2;stroke-linecap:round;stroke-linejoin:round;stroke-miterlimit:10;}
	.st10{fill:none;stroke:#008D36;stroke-width:2;stroke-linecap:round;stroke-linejoin:round;}
	.st11{fill:#008D36;}
	.st12{fill:none;stroke:#95C11F;stroke-width:2;stroke-linecap:round;stroke-linejoin:round;stroke-miterlimit:10;}
	.st13{fill:none;stroke:#95C11F;stroke-width:2;stroke-linecap:round;stroke-linejoin:round;}
	.st14{fill:#95C11F;}
	.st15{fill:none;stroke:#3AAA35;stroke-width:2;stroke-linecap:round;stroke-linejoin:round;stroke-miterlimit:10;}
	.st16{fill:none;stroke:#3AAA35;stroke-width:2;stroke-linecap:round;stroke-linejoin:round;}
	.st17{fill:#3AAA35;}
	.st18{fill:none;stroke:#00A19A;stroke-width:2;stroke-linecap:round;stroke-linejoin:round;stroke-miterlimit:10;}
	.st19{fill:#006633;}
	.st20{fill:none;stroke:#006633;stroke-width:2;stroke-linecap:round;stroke-linejoin:round;}
	.st21{fill:#006633;stroke:#006633;stroke-width:2;stroke-linecap:round;stroke-linejoin:round;stroke-miterlimit:10;}
	.st22{fill:none;stroke:#006633;stroke-width:2;stroke-linecap:round;stroke-linejoin:round;stroke-miterlimit:10;}
	.st23{fill:#706F6F;}
	.st24{font-family:'MullerLight';}
	.st25{font-size:10px;}
	.st26{fill:none;stroke:#000000;stroke-miterlimit:10;stroke-dasharray:5.0145,5.0145;}
	.st27{fill:none;stroke:#00A19A;stroke-width:2;stroke-linecap:round;stroke-linejoin:round;}
	.st28{fill:#00A19A;}
	.st29{fill:none;stroke:#706F6F;stroke-width:2;stroke-miterlimit:10;}
	.st30{fill:none;stroke:#706F6F;stroke-width:2;stroke-miterlimit:10;stroke-dasharray:11.9359,11.9359;}
	.st31{fill:none;stroke:#706F6F;stroke-width:2;stroke-miterlimit:10;stroke-dasharray:11.6333,11.6333;}
</style>
<path class="st0" d="M230.7,228.2h-39.5c-6.6,0-12-5.4-12-12v-98.1c0-6.6,5.4-12,12-12h39.5c6.6,0,12,5.4,12,12v98.1
	C242.7,222.8,237.3,228.2,230.7,228.2z"/>
<circle class="st0" cx="134.9" cy="577.4" r="20.4"/>
<rect x="116.3" y="572.6" class="st1" width="39" height="13.8"/>
<text transform="matrix(1 0 0 1 119.4051 580.2347)" class="st2 st3">22С01</text>
<rect x="39.8" y="703.6" class="st4" width="110.5" height="81.7"/>
<rect x="31" y="732.4" class="st1" width="127.9" height="58.6"/>
<text transform="matrix(1 0 0 1 61.8044 741.4572)"><tspan x="0" y="0" class="st5 st6">Резервуар</tspan><tspan x="13.2" y="15.6" class="st2 st6">73D01</tspan></text>
<path class="st0" d="M457.1,479.8h-39.5c-6.6,0-12-5.4-12-12v-88c0-6.6,5.4-12,12-12h39.5c6.6,0,12,5.4,12,12v88
	C469.1,474.4,463.7,479.8,457.1,479.8z"/>
<g>
	<path class="st4" d="M359.1,609.5h-136c-6.6,0-12-5.4-12-12V310.1c0-6.6,5.4-12,12-12h136c6.6,0,12,5.4,12,12v287.3
		C371.1,604.1,365.7,609.5,359.1,609.5z"/>
	<line class="st4" x1="211.1" y1="504" x2="371.1" y2="504"/>
	<line class="st4" x1="210.9" y1="399.5" x2="370.9" y2="399.5"/>
</g>
<g>
	<g>
		<line class="st7" x1="155.3" y1="577.4" x2="193.4" y2="577.4"/>
		<g>
			<polygon class="st8" points="189.4,583.2 211.1,577.4 189.4,571.6 			"/>
		</g>
	</g>
</g>
<line class="st7" x1="229.4" y1="577.4" x2="229.4" y2="541.4"/>
<line class="st7" x1="229.4" y1="541.4" x2="193.6" y2="541.4"/>
<line class="st7" x1="193.6" y1="472.1" x2="193.6" y2="541.4"/>
<line class="st7" x1="229.4" y1="471.7" x2="193.6" y2="471.7"/>
<line class="st7" x1="229.4" y1="471.7" x2="229.4" y2="435.8"/>
<line class="st7" x1="229.4" y1="435.8" x2="193.6" y2="435.8"/>
<line class="st7" x1="193.6" y1="366.5" x2="193.6" y2="435.8"/>
<line class="st7" x1="229.4" y1="366.5" x2="193.6" y2="366.5"/>
<line class="st7" x1="229.4" y1="366.4" x2="229.4" y2="330.4"/>
<line class="st7" x1="229.4" y1="330.4" x2="95" y2="330.4"/>
<g>
	<g>
		<line class="st7" x1="95" y1="330.4" x2="95" y2="685.2"/>
		<g>
			<polygon class="st8" points="89.2,681.3 95,703 100.8,681.3 			"/>
		</g>
	</g>
</g>
<line class="st7" x1="229.4" y1="577.4" x2="211.1" y2="577.4"/>
<line class="st9" x1="210.9" y1="228.3" x2="210.9" y2="274.1"/>
<line class="st9" x1="210.9" y1="274.1" x2="518.6" y2="274.1"/>
<line class="st9" x1="518.6" y1="274.1" x2="518.6" y2="581.5"/>
<g>
	<g>
		<line class="st10" x1="518.6" y1="581.5" x2="388.8" y2="581.5"/>
		<g>
			<polygon class="st11" points="392.8,575.7 371.1,581.5 392.8,587.3 			"/>
		</g>
	</g>
</g>
<line class="st9" x1="355.6" y1="514.6" x2="355.6" y2="581.5"/>
<g>
	<line class="st9" x1="352.5" y1="518" x2="358.7" y2="511.7"/>
	<line class="st9" x1="358.7" y1="518" x2="352.5" y2="511.7"/>
</g>
<line class="st9" x1="355.6" y1="581.5" x2="371.1" y2="581.5"/>
<path class="st0" d="M135.9,228.2H96.4c-6.6,0-12-5.4-12-12v-98.1c0-6.6,5.4-12,12-12h39.5c6.6,0,12,5.4,12,12v98.1
	C147.9,222.8,142.5,228.2,135.9,228.2z"/>
<line class="st12" x1="116.2" y1="228.3" x2="116.2" y2="286.2"/>
<line class="st12" x1="116.2" y1="286.2" x2="507.2" y2="286.2"/>
<line class="st12" x1="507.2" y1="566.5" x2="507.2" y2="286.2"/>
<g>
	<g>
		<line class="st13" x1="388.8" y1="566.5" x2="507.2" y2="566.5"/>
		<g>
			<polygon class="st14" points="392.8,572.3 371.1,566.5 392.8,560.6 			"/>
		</g>
	</g>
</g>
<line class="st12" x1="371.1" y1="566.5" x2="363.8" y2="566.5"/>
<line class="st12" x1="363.8" y1="538.8" x2="363.8" y2="566.5"/>
<line class="st12" x1="499.3" y1="538.8" x2="363.8" y2="538.8"/>
<line class="st15" x1="437.4" y1="367.9" x2="437.4" y2="353.8"/>
<line class="st15" x1="399.3" y1="353.8" x2="437.4" y2="353.8"/>
<line class="st15" x1="399.3" y1="353.8" x2="399.3" y2="468.2"/>
<g>
	<g>
		<line class="st16" x1="389.1" y1="468.2" x2="398.1" y2="468.2"/>
		<g>
			<polygon class="st17" points="393,474 371.3,468.2 393,462.3 			"/>
		</g>
	</g>
</g>
<line class="st15" x1="371.3" y1="468.2" x2="363.6" y2="468.2"/>
<line class="st15" x1="363.6" y1="430.9" x2="363.6" y2="468.2"/>
<line class="st18" x1="355.6" y1="425.2" x2="355.6" y2="494.2"/>
<line class="st15" x1="387.4" y1="430.9" x2="359.6" y2="430.9"/>
<line class="st15" x1="387.6" y1="367.9" x2="387.6" y2="430.9"/>
<line class="st15" x1="355.6" y1="367.9" x2="387.6" y2="367.9"/>
<g>
	<line class="st15" x1="352.5" y1="311.4" x2="358.7" y2="305.2"/>
	<line class="st15" x1="358.7" y1="311.4" x2="352.5" y2="305.2"/>
</g>
<path class="st0" d="M342.6,228.3h-39.5c-6.6,0-12-5.4-12-12v-98.1c0-6.6,5.4-12,12-12h39.5c6.6,0,12,5.4,12,12v98.1
	C354.6,222.9,349.2,228.3,342.6,228.3z"/>
<g>
	<line class="st19" x1="322.8" y1="228.3" x2="322.8" y2="262.9"/>
	<g>
		<line class="st20" x1="322.8" y1="246" x2="322.8" y2="262.9"/>
		<g>
			<polygon class="st19" points="317,249.9 322.8,228.3 328.7,249.9 			"/>
		</g>
	</g>
</g>
<line class="st21" x1="322.8" y1="262.9" x2="530.4" y2="262.9"/>
<line class="st21" x1="530.4" y1="597" x2="530.4" y2="262.9"/>
<g>
	<line class="st19" x1="462.3" y1="596.8" x2="372.2" y2="596.8"/>
	<g>
		<line class="st20" x1="444.5" y1="596.8" x2="372.2" y2="596.8"/>
		<g>
			<polygon class="st19" points="440.6,591 462.3,596.8 440.6,602.6 			"/>
		</g>
	</g>
</g>
<line class="st21" x1="462.3" y1="597" x2="530.4" y2="597"/>
<line class="st22" x1="290.9" y1="609.5" x2="290.9" y2="626.1"/>
<line class="st22" x1="547.8" y1="626.1" x2="462.3" y2="626.1"/>
<line class="st21" x1="547.8" y1="626.1" x2="547.8" y2="193.4"/>
<g>
	<g>
		<line class="st20" x1="547.8" y1="193.4" x2="372.3" y2="193.4"/>
		<g>
			<polygon class="st19" points="376.3,187.6 354.6,193.4 376.3,199.3 			"/>
		</g>
	</g>
</g>
<g>
	<line class="st19" x1="462.3" y1="626.1" x2="290.9" y2="626.1"/>
	<g>
		<line class="st20" x1="444.5" y1="626.1" x2="290.9" y2="626.1"/>
		<g>
			<polygon class="st19" points="440.6,620.3 462.3,626.1 440.6,631.9 			"/>
		</g>
	</g>
</g>
<rect x="95.5" y="106.1" class="st1" width="53.4" height="122.2"/>
<text transform="matrix(0 -1 1 0 104.6313 200.9302)"><tspan x="0" y="0" class="st5 st6">Сепаратор </tspan><tspan x="-1.4" y="15.6" class="st5 st6">хладагента</tspan><tspan x="13.4" y="31.2" class="st2 st6"> 41D13</tspan></text>
<rect x="189.3" y="104.2" class="st1" width="53.4" height="122.2"/>
<text transform="matrix(0 -1 1 0 198.3786 199.0044)"><tspan x="0" y="0" class="st5 st6">Сепаратор </tspan><tspan x="-1.4" y="15.6" class="st5 st6">хладагента</tspan><tspan x="13.2" y="31.2" class="st5 st6"> </tspan><tspan x="16.4" y="31.2" class="st2 st6">41D12</tspan></text>
<rect x="301.2" y="106.1" class="st1" width="53.4" height="122.2"/>
<text transform="matrix(0 -1 1 0 310.3253 200.9673)"><tspan x="0" y="0" class="st5 st6">Сепаратор </tspan><tspan x="-1.4" y="15.6" class="st5 st6">хладагента</tspan><tspan x="14.1" y="31.2" class="st5 st6"> </tspan><tspan x="17.3" y="31.2" class="st2 st6">41D11</tspan></text>
<rect x="408.7" y="367.9" class="st1" width="60.2" height="112"/>
<text transform="matrix(0 -1 1 0 417.7584 457.5928)"><tspan x="0" y="0" class="st5 st6">Сепаратор </tspan><tspan x="-4.5" y="15.6" class="st5 st6">смешанного </tspan><tspan x="-1.4" y="31.2" class="st5 st6">хладагента</tspan><tspan x="12.8" y="46.8" class="st5 st6"> </tspan><tspan x="16" y="46.8" class="st2 st6">41D14</tspan></text>
<rect x="156.9" y="587.7" class="st1" width="46.4" height="10.1"/>
<text transform="matrix(1 0 0 1 158.0597 594.6732)" class="st23 st24 st25">сухой газ</text>
<rect x="408.7" y="28.4" class="st1" width="161.8" height="53.3"/>
<text transform="matrix(1 0 0 1 412.3416 37.5064)"><tspan x="0" y="0" class="st5 st6">Первая технологическая </tspan><tspan x="59.6" y="15.6" class="st5 st6">нитка</tspan></text>
<rect x="222.5" y="262.9" class="st1" width="29" height="9.1"/>
<text transform="matrix(1 0 0 1 227.5305 269.8928)" class="st23 st24 st25">ТСХ</text>
<g>
	<g>
		<line class="st4" x1="210.9" y1="524.5" x2="213.4" y2="524.5"/>
		<line class="st26" x1="218.4" y1="524.5" x2="366.3" y2="524.5"/>
		<line class="st4" x1="368.8" y1="524.5" x2="371.3" y2="524.5"/>
	</g>
</g>
<rect x="216.8" y="509.7" class="st1" width="133.7" height="13.8"/>
<text transform="matrix(1 0 0 1 218.5672 516.6565)" class="st5 st25">Межтрубное пространство </text>
<rect x="373.3" y="509.7" class="st1" width="50.6" height="10.3"/>
<text transform="matrix(1 0 0 1 374.471 516.6565)" class="st23 st24 st25">хладагент</text>
<rect x="54.2" y="290.5" class="st1" width="111.9" height="23"/>
<text transform="matrix(1 0 0 1 57.1173 297.4797)"><tspan x="0" y="0" class="st23 st24 st25">смешанный хладагент </tspan><tspan x="6.5" y="12" class="st23 st24 st25">высокого давления</tspan></text>
<line class="st12" x1="499.3" y1="538.8" x2="499.3" y2="423.8"/>
<g>
	<g>
		<line class="st13" x1="486.6" y1="423.8" x2="499.3" y2="423.8"/>
		<g>
			<polygon class="st14" points="490.6,429.6 468.9,423.8 490.6,418 			"/>
		</g>
	</g>
</g>
<g>
	<g>
		<line class="st4" x1="210.9" y1="419.2" x2="213.4" y2="419.2"/>
		<line class="st26" x1="218.4" y1="419.2" x2="366.3" y2="419.2"/>
		<line class="st4" x1="368.8" y1="419.2" x2="371.3" y2="419.2"/>
	</g>
</g>
<rect x="216.8" y="404.4" class="st1" width="133.7" height="13.8"/>
<text transform="matrix(1 0 0 1 218.5672 411.3679)" class="st5 st25">Межтрубное пространство </text>
<line class="st18" x1="437.4" y1="479.8" x2="437.4" y2="494.2"/>
<g>
	<g>
		<line class="st27" x1="389.1" y1="494.2" x2="437.4" y2="494.2"/>
		<g>
			<polygon class="st28" points="393,500.1 371.3,494.2 393,488.4 			"/>
		</g>
	</g>
</g>
<line class="st18" x1="371.3" y1="494.2" x2="355.6" y2="494.2"/>
<g>
	<g>
		<line class="st4" x1="210.9" y1="316.5" x2="213.4" y2="316.5"/>
		<line class="st26" x1="218.4" y1="316.5" x2="366.3" y2="316.5"/>
		<line class="st4" x1="368.8" y1="316.5" x2="371.3" y2="316.5"/>
	</g>
</g>
<rect x="213.8" y="302.7" class="st1" width="142.8" height="13.8"/>
<text transform="matrix(1 0 0 1 220.0995 309.731)" class="st5 st25">Межтрубное пространство </text>
<line class="st18" x1="376.8" y1="425.2" x2="355.6" y2="425.2"/>
<line class="st18" x1="376.8" y1="308.3" x2="376.8" y2="425.2"/>
<line class="st18" x1="366.2" y1="308.3" x2="376.8" y2="308.3"/>
<g>
	<line class="st18" x1="361.1" y1="311.4" x2="367.3" y2="305.2"/>
	<line class="st18" x1="367.3" y1="311.4" x2="361.1" y2="305.2"/>
</g>
<rect x="379.3" y="302.7" class="st1" width="52.8" height="9.8"/>
<text transform="matrix(1 0 0 1 381.6494 309.731)" class="st23 st24 st25">хладагент</text>
<rect x="438.8" y="482.8" class="st1" width="56.4" height="36"/>
<text transform="matrix(1 0 0 1 446.7737 489.8169)"><tspan x="0" y="0" class="st23 st24 st25">средний </tspan><tspan x="-7.5" y="12" class="st23 st24 st25">смешанный </tspan><tspan x="-3.9" y="24" class="st23 st24 st25">хладагент</tspan></text>
<line class="st15" x1="355.6" y1="309.6" x2="355.6" y2="367.9"/>
<rect x="383.2" y="635.4" class="st1" width="152.5" height="12.1"/>
<text transform="matrix(1 0 0 1 387.0207 642.3685)" class="st23 st24 st25">жидкий смешанный хладагент</text>
<rect x="399.6" y="605.1" class="st1" width="121.8" height="9.6"/>
<text transform="matrix(1 0 0 1 407.4724 612.0847)" class="st23 st24 st25">смешанный хладагент</text>
<rect x="101.9" y="542.9" class="st1" width="68.1" height="13.8"/>
<text transform="matrix(1 0 0 1 104.5893 550.5157)" class="st5 st3">компрессор</text>
<rect x="207.2" y="544" class="st1" width="167.7" height="36.4"/>
<text transform="matrix(1 0 0 1 238.266 553.1089)"><tspan x="0" y="0" class="st5 st6">Предохладитель</tspan><tspan x="35.1" y="15.6" class="st2 st6">23Е11</tspan></text>
<rect x="207.2" y="439.3" class="st1" width="167.7" height="36.4"/>
<text transform="matrix(1 0 0 1 254.4769 448.3889)"><tspan x="0" y="0" class="st5 st6">Ожижитель</tspan><tspan x="18" y="15.6" class="st2 st6">23Е12</tspan></text>
<rect x="207" y="335.6" class="st1" width="167.7" height="36.4"/>
<text transform="matrix(1 0 0 1 238.6254 344.6688)"><tspan x="0" y="0" class="st5 st6">Переохладитель</tspan><tspan x="33.6" y="15.6" class="st2 st6">23Е13</tspan></text>
<g>
	<g>
		<polyline class="st29" points="558.2,644.8 558.2,650.8 552.2,650.8 		"/>
		<line class="st30" x1="540.2" y1="650.8" x2="188.1" y2="650.8"/>
		<polyline class="st29" points="182.1,650.8 176.1,650.8 176.1,644.8 		"/>
		<line class="st31" x1="176.1" y1="633.2" x2="176.1" y2="266.7"/>
		<polyline class="st29" points="176.1,260.9 176.1,254.9 182.1,254.9 		"/>
		<line class="st30" x1="194.1" y1="254.9" x2="546.2" y2="254.9"/>
		<polyline class="st29" points="552.2,254.9 558.2,254.9 558.2,260.9 		"/>
		<line class="st31" x1="558.2" y1="272.5" x2="558.2" y2="639"/>
	</g>
</g>
<rect x="291.1" y="670.7" class="st1" width="167.7" height="36.4"/>
<text transform="matrix(1 0 0 1 307.1145 679.8126)"><tspan x="0" y="0" class="st5 st6">Отделение сжижения</tspan><tspan x="13.4" y="15.6" class="st5 st6"> природного газа</tspan></text>
</svg>
